<svg width="32" height="32" viewBox="0 0 32 32" fill="none" xmlns="http://www.w3.org/2000/svg">
<mask id="mask0_523_4714" style="mask-type:alpha" maskUnits="userSpaceOnUse" x="0" y="0" width="32" height="32">
<circle cx="16" cy="16" r="16" fill="#F5C495"/>
</mask>
<g mask="url(#mask0_523_4714)">
<circle cx="16" cy="16" r="16" fill="#21242A"/>
<path d="M16.1715 33.5634L7.27815 29.9C7.16241 29.6242 7.08482 29.334 7.04752 29.0374C6.98416 28.6888 6.98416 28.3316 7.04752 27.983C7.11997 27.6351 7.26249 27.3055 7.46641 27.0143C7.70459 26.7634 7.99445 26.567 8.316 26.4387C8.49003 26.362 9.62533 25.9991 9.62533 25.9991C9.62533 25.9991 10.9071 25.5571 11.2379 25.4302C11.6842 25.2835 12.1212 25.1098 12.5464 24.9103C12.8909 24.7279 13.2019 24.4884 13.4662 24.2021C13.7199 23.974 13.922 23.6945 14.0591 23.3824C14.18 23.0031 14.2478 22.6091 14.2607 22.2113C14.2761 22.066 14.2831 21.9261 14.2852 21.7992C12.0536 20.7493 10.4583 17.973 10.4583 14.7132C10.4583 10.5514 13.0585 7.17773 16.2661 7.17773C19.4738 7.17773 22.0734 10.5514 22.0734 14.7132C22.0734 17.973 20.4781 20.7493 18.2453 21.7995C18.2474 21.9264 18.2544 22.0663 18.2698 22.2116C18.2826 22.6094 18.3505 23.0034 18.4714 23.3827C18.6085 23.6948 18.8106 23.9743 19.0643 24.2024C19.3288 24.4888 19.6401 24.7282 19.985 24.9106C20.4102 25.1101 20.8472 25.2838 21.2934 25.4305C21.6264 25.5574 22.907 25.9991 22.907 25.9991C22.907 25.9991 24.0423 26.3617 24.2163 26.4387C24.5379 26.567 24.8279 26.7634 25.0662 27.0143C25.2701 27.3055 25.4126 27.6351 25.4851 27.983C25.5484 28.3316 25.5484 28.6888 25.4851 29.0374C25.4477 29.3341 25.37 29.6243 25.2541 29.9L24.7569 30.8317L16.1715 33.5634Z" fill="#F5C495"/>
</g>
</svg>
