<svg width="138" height="138" viewBox="0 0 138 138" fill="none" xmlns="http://www.w3.org/2000/svg">
<mask id="mask0_498_6781" style="mask-type:alpha" maskUnits="userSpaceOnUse" x="0" y="0" width="138" height="138">
<circle cx="69" cy="69" r="69" fill="#F5C495"/>
</mask>
<g mask="url(#mask0_498_6781)">
<circle cx="69" cy="69" r="69" fill="#393C45"/>
<path d="M64.7962 144.732L26.4437 128.933C25.9445 127.744 25.6099 126.492 25.4491 125.213C25.1758 123.71 25.1758 122.169 25.4491 120.666C25.7615 119.166 26.3761 117.744 27.2555 116.489C28.2827 115.407 29.5327 114.56 30.9194 114.006C31.6699 113.676 36.5659 112.111 36.5659 112.111C36.5659 112.111 42.0936 110.204 43.5203 109.657C45.4448 109.024 47.3291 108.275 49.1629 107.415C50.6487 106.628 51.99 105.596 53.1295 104.361C54.2237 103.377 55.0953 102.172 55.6865 100.826C56.2079 99.1904 56.5004 97.4909 56.5558 95.7756C56.6224 95.1489 56.6524 94.5456 56.6615 93.9984C47.0379 89.4706 40.1579 77.4978 40.1579 63.4403C40.1579 45.4921 51.3713 30.9434 65.2044 30.9434C79.0374 30.9434 90.2482 45.4921 90.2482 63.4403C90.2482 77.4978 83.3682 89.4706 73.7394 93.9997C73.7486 94.5469 73.7786 95.1502 73.8451 95.7769C73.9005 97.4922 74.193 99.1917 74.7144 100.827C75.3056 102.173 76.1773 103.378 77.2714 104.362C78.4121 105.597 79.7547 106.63 81.242 107.416C83.0757 108.277 84.96 109.026 86.8846 109.659C88.3204 110.206 93.8429 112.111 93.8429 112.111C93.8429 112.111 98.7389 113.674 99.4894 114.006C100.877 114.56 102.127 115.406 103.155 116.489C104.034 117.745 104.648 119.166 104.961 120.666C105.234 122.169 105.234 123.71 104.961 125.213C104.8 126.493 104.465 127.744 103.965 128.933L101.821 132.951L64.7962 144.732Z" fill="#21242A"/>
<path d="M67.3201 142.207L38.7104 135.475L35.0994 128.933C34.6003 127.744 34.2657 126.492 34.1048 125.213C33.8316 123.71 33.8316 122.169 34.1048 120.666C34.4173 119.166 35.0319 117.744 35.9113 116.489C36.9385 115.407 38.1885 114.56 39.5751 114.006C40.3257 113.676 45.2216 112.111 45.2216 112.111C45.2216 112.111 50.7494 110.204 52.176 109.657C54.1006 109.024 55.9849 108.275 57.8186 107.415C59.3045 106.628 60.6458 105.596 61.7853 104.361C62.8794 103.377 63.7511 102.172 64.3423 100.826C64.8636 99.1904 65.1562 97.4909 65.2116 95.7756C65.2781 95.1489 65.3081 94.5456 65.3173 93.9984C55.6937 89.4706 48.8137 77.4978 48.8137 63.4403C48.8137 45.4921 60.0271 30.9434 73.8601 30.9434C87.6932 30.9434 98.904 45.4921 98.904 63.4403C98.904 77.4978 92.024 89.4706 82.3952 93.9997C82.4043 94.5469 82.4343 95.1502 82.5009 95.7769C82.5563 97.4922 82.8488 99.1917 83.3702 100.827C83.9614 102.173 84.833 103.378 85.9272 104.362C87.0679 105.597 88.4105 106.63 89.8978 107.416C91.7315 108.277 93.6158 109.026 95.5403 109.659C96.9761 110.206 102.499 112.111 102.499 112.111C102.499 112.111 107.395 113.674 108.145 114.006C109.532 114.56 110.783 115.406 111.81 116.489C112.69 117.745 113.304 119.166 113.617 120.666C113.89 122.169 113.89 123.71 113.617 125.213C113.455 126.493 113.12 127.744 112.621 128.933L94.247 137.158L67.3201 142.207Z" stroke="#F5C495"/>
</g>
</svg>
