<svg width="25" height="25" viewBox="0 0 25 25" fill="none" xmlns="http://www.w3.org/2000/svg">
<path d="M6.24594 19.1156L6.57812 19.4893C6.67994 19.3988 6.74042 19.2707 6.74558 19.1346C6.75075 18.9984 6.70015 18.8661 6.60549 18.7682L6.24594 19.1156ZM3 22.0009L2.66782 21.6272C2.51266 21.7651 2.45887 21.9845 2.53264 22.1786C2.60641 22.3726 2.79241 22.5009 3 22.5009V22.0009ZM22 12.5463C22 17.4918 17.9909 21.5009 13.0455 21.5009V22.5009C18.5432 22.5009 23 18.0441 23 12.5463H22ZM13.0455 3.5918C17.9909 3.5918 22 7.60088 22 12.5463H23C23 7.0486 18.5432 2.5918 13.0455 2.5918V3.5918ZM4.09091 12.5463C4.09091 7.60088 8.1 3.5918 13.0455 3.5918V2.5918C7.54771 2.5918 3.09091 7.0486 3.09091 12.5463H4.09091ZM6.60549 18.7682C5.04822 17.1566 4.09091 14.9638 4.09091 12.5463H3.09091C3.09091 15.2334 4.15619 17.6726 5.88639 19.4631L6.60549 18.7682ZM5.91376 18.7419L2.66782 21.6272L3.33218 22.3746L6.57812 19.4893L5.91376 18.7419ZM3 22.5009H13.0455V21.5009H3V22.5009Z" fill="#F5C495"/>
</svg>
