<svg width="159" height="27" viewBox="0 0 159 27" fill="none" xmlns="http://www.w3.org/2000/svg">
<path fill-rule="evenodd" clip-rule="evenodd" d="M159 5.56851V7.26613C144.309 15.0271 127.382 22.4108 115.18 25.4335C111.747 26.284 108.658 26.7971 106.081 26.8675C103.529 26.9373 101.36 26.5771 99.8732 25.559C98.3095 24.4881 97.6323 22.7864 97.8898 20.5591C98.1413 18.385 99.2804 15.6549 101.363 12.3093C102.994 9.68999 103.911 7.64477 104.274 6.08616C104.638 4.52798 104.427 3.56937 103.973 2.97522C103.509 2.36793 102.647 1.95108 101.288 1.80584C99.9385 1.66168 98.2186 1.7999 96.2149 2.17996C88.181 3.70379 76.3395 8.9579 67.8459 13.3713C67.8311 13.379 67.816 13.3862 67.8007 13.3929C61.1229 16.3144 51.5984 19.8483 44.8134 20.8846C43.1124 21.1444 41.5505 21.2529 40.2312 21.1436C38.9288 21.0358 37.7584 20.7076 36.9486 19.9955C36.0905 19.2409 35.7564 18.1647 35.9293 16.8656C36.0972 15.6048 36.7418 14.0938 37.8651 12.3066C38.9414 10.5943 39.4507 9.30038 39.5686 8.35422C39.6813 7.44942 39.4368 6.91107 39.0138 6.54883C38.541 6.14387 37.7302 5.86029 36.5321 5.76284C35.351 5.66678 33.8912 5.75918 32.2242 6.0099C25.5373 7.01559 16.0362 10.4825 9.2976 13.3942C8.91737 13.5585 8.47593 13.3835 8.31164 13.0032C8.14734 12.623 8.32239 12.1816 8.70262 12.0173C15.464 9.09566 25.1129 5.56256 32.0011 4.52658C33.7278 4.26689 35.3133 4.15877 36.6537 4.26778C37.9771 4.37542 39.1639 4.70251 39.9895 5.40953C40.865 6.15927 41.2197 7.2342 41.0571 8.53968C40.8995 9.80382 40.2588 11.3172 39.1351 13.1049C38.0585 14.8177 37.5426 16.114 37.4162 17.0635C37.2949 17.9746 37.5327 18.5117 37.9391 18.8691C38.3939 19.2689 39.1808 19.5515 40.355 19.6487C41.5122 19.7446 42.9461 19.6525 44.5869 19.4018C51.161 18.3977 60.5225 14.9383 67.1766 12.0286C75.6818 7.6108 87.6765 2.27273 95.9353 0.706234C98.0066 0.313368 99.8898 0.147938 101.447 0.314329C102.994 0.479638 104.341 0.98754 105.165 2.06412C105.998 3.15385 106.153 4.63824 105.735 6.42711C105.318 8.21555 104.306 10.4214 102.637 13.1022C100.595 16.3816 99.5933 18.886 99.3799 20.7314C99.1726 22.5237 99.7064 23.6267 100.721 24.3214C101.812 25.0688 103.589 25.4351 106.04 25.3681C108.467 25.3017 111.441 24.8146 114.82 23.9775C127.049 20.9481 144.202 13.4366 159 5.56851ZM6.38325 14.8505C6.73933 14.6389 6.85647 14.1787 6.64487 13.8226C6.43327 13.4665 5.97307 13.3494 5.61698 13.561L4.61698 14.1552C4.26089 14.3668 4.14376 14.827 4.35536 15.1831C4.56696 15.5392 5.02716 15.6563 5.38325 15.4447L6.38325 14.8505ZM2.38598 17.1431C2.74117 16.93 2.85634 16.4693 2.64323 16.1141C2.43012 15.7589 1.96943 15.6437 1.61424 15.8569L1.11424 16.1569C0.759055 16.37 0.643881 16.8307 0.856993 17.1858C1.0701 17.541 1.5308 17.6562 1.88598 17.4431L2.38598 17.1431Z" fill="#F5C495"/>
</svg>
