<svg width="330" height="102" viewBox="0 0 330 102" fill="none" xmlns="http://www.w3.org/2000/svg">
<mask id="mask0_587_9248" style="mask-type:alpha" maskUnits="userSpaceOnUse" x="0" y="0" width="330" height="102">
<rect width="330" height="102" fill="#D9D9D9"/>
</mask>
<g mask="url(#mask0_587_9248)">
<path d="M-0.5 34.6811C25.1667 22.8478 73.2 6.28111 60 34.6811C46.8 63.0811 91.1667 50.1815 115 40.1816C129.333 32.6816 155.8 22.1816 147 40.1816C138.2 58.1816 169 49.015 185.5 42.1816C193.667 38.6816 209.7 33.7816 208.5 42.1816C207 52.6816 209.5 58.6816 287 44.6816M290 44.1816L294 43.1816M297 42.1816L298 41.9816" stroke="#F5C495" stroke-width="1.5" stroke-linecap="round"/>
<path d="M-18 58.6811C7.66667 46.8478 55.7 30.2811 42.5 58.6811C29.3 87.0811 73.6667 74.1815 97.5 64.1816C111.833 56.6816 138.3 46.1816 129.5 64.1816C120.7 82.1816 151.5 73.015 168 66.1816C176.167 62.6816 192.2 57.7816 191 66.1816C189.5 76.6816 192 82.6816 269.5 68.6816M272.5 68.1816L276.5 67.1816M279.5 66.1816L280.5 65.9816" stroke="#393C45" stroke-opacity="0.6" stroke-width="1.5" stroke-linecap="round"/>
</g>
</svg>
